# xmcd
#
# Track frame offsets: 
#        150
#        9526
#        22921
#        33199
#        44109
#        55047
#        62807
#        74438
#        82252
#        100722
#        109845
#        119961
#        133886
#        142246
#
# Disc length: 2097 seconds
#
# Revision: 1
# Processed by: cddbd v1.5.2PL0 Copyright (c) Steve Scherf et al.
# Submitted via: ExactAudioCopyFreeDBPlugin 1.0
#
DISCID=d4082f0e
DTITLE=Glen Campbell - 1962 - Big Bluegrass Special
DYEAR=1962
DGENRE=Country
TTITLE0=Truck Driving Man
TTITLE1=There`s More Pretty Girls Than One
TTITLE2=Weary Lonesome Blues
TTITLE3=No Vacancy
TTITLE4=Rainin` on The Mountain
TTITLE5=Kentucky Means Paradise
TTITLE6=Brown´s Ferry Blues
TTITLE7=Lonesome Jailhouse Blues
TTITLE8=One Hundred Miles Away From Home
TTITLE9=This Old White Mule Of Mine
TTITLE10=Poor Boy Lookin´ for A Home
TTITLE11=Long Black Limousine
TTITLE12=Divorce Me C.O.D.
TTITLE13=Dark As A Dungeon
EXTD=
EXTT0=
EXTT1=
EXTT2=
EXTT3=
EXTT4=
EXTT5=
EXTT6=
EXTT7=
EXTT8=
EXTT9=
EXTT10=
EXTT11=
EXTT12=
EXTT13=
PLAYORDER=
